<svg width="1440" height="815" fill="none" xmlns="http://www.w3.org/2000/svg"><path fill="#012749" d="M0 0h1440v803H0z"/><g clip-path="url(#a)"><path opacity=".71" d="m1445.67 359.722-40.51-22.227v-62.414h-109.43V208h-140.69v170.057h-32.69v39.786h-25.58v95.166h-29.85v-131.06h-73.902v-38.221h-41.925v61.237l-39.078 21.451v123.25h-92.384v-270.68h-99.485v50.699h-78.168l-21.318 11.702v28.084h-98.054l-18.482 10.138v95.179h-41.217V328.134H386.17v25.744H264.658v62.013l-22.04 12.09v60.916h-36.629V338.565l-49.736-10.926v-40.562H22.651v171.622H-.5l-26.585-216.864-83.851 23.404v213.735h-35.534V337.79l-21.317-28.085v-10.926h-49.736v10.926h-27.015l-21.317 24.955h-19.886V230.133h-51.167v37.834h-73.193l-41.926 23.015v533.536H454.842v-.428l990.828-.642V359.722Z" fill="#90ABC8"/><path d="M1354.51 384.62 1334 407.16v69.091h-21.87V287h-97.74v440.828l-29.38-32.3V441.706H967.651v64.571H852.832v292.044H751.957V534.643h-29.181V432.069H662.97v169.896h-27.724v32.068l-35.009-60.911H538.96V353.518H420.791l-10.212 11.216v142.66h-33.553V307.036H276.369v33.66l-19.703 21.642V703.75h-22.605V429.66h-13.14v-26.447H104.945l-19.69 21.642v30.448H-24.159L-30 844h364.718v-.803h370.547V844H1442V384.62h-87.49Z" fill="#90ABC8"/><path d="M1455.78 410.596V679.71h-34.73V572.602l-49.2-41.725V368.87h-62.23l-36.19-30.692h-46.3v163.237h-111.42v185.343h-28.96V427.781l-81.03 35.586v154.652h-21.702V379.917h-27.496v-69.97h-7.007v-15.955h-61.518v13.507h-38.57v54.003h-63.671l-15.914 18.415v220.917h-54.27v-44.802l-34.009-28.833V421.642H562.9v87.142h-43.423v73.648l-52.09 49.094H434.1V398.319l-92.624-54.002v216.022H319.77V411.826H209.787v51.541h-50.646v246.701h-21.705V603.294H63.628v-33.139L50.602 554.2h-79.586l-5.79 762.3H1549.98V410.596h-94.2Z" fill="#E6E9ED"/></g><defs><clipPath id="a"><path fill="#fff" transform="translate(0 208)" d="M0 0h1440v607H0z"/></clipPath></defs></svg>