<svg width="18" height="12" viewBox="0 0 18 12" fill="none" xmlns="http://www.w3.org/2000/svg">
<path d="M0.396208 10.7846C0.649976 11.0383 0.994114 11.1808 1.35294 11.1808C1.71177 11.1808 2.05591 11.0383 2.30968 10.7846L9.00817 4.08608L15.7067 10.7846C15.9619 11.0311 16.3037 11.1675 16.6585 11.1644C17.0133 11.1613 17.3527 11.019 17.6036 10.7681C17.8545 10.5172 17.9969 10.1778 17.9999 9.82297C18.003 9.46816 17.8666 9.12633 17.6201 8.87111L9.9649 1.21588C9.71113 0.96219 9.367 0.819674 9.00817 0.819674C8.64934 0.819674 8.3052 0.96219 8.05144 1.21588L0.396208 8.87111C0.142516 9.12488 0 9.46902 0 9.82784C0 10.1867 0.142516 10.5308 0.396208 10.7846Z" fill="white"/>
</svg>
