<svg width="18" height="12" viewBox="0 0 18 12" fill="none" xmlns="http://www.w3.org/2000/svg">
<path d="M0.396208 1.21567C0.649976 0.961974 0.994114 0.819458 1.35294 0.819458C1.71177 0.819458 2.05591 0.961974 2.30968 1.21567L9.00817 7.91416L15.7067 1.21567C15.9619 0.969164 16.3037 0.832765 16.6585 0.835849C17.0133 0.838932 17.3527 0.98125 17.6036 1.23215C17.8545 1.48305 17.9969 1.82246 17.9999 2.17727C18.003 2.53208 17.8666 2.87391 17.6201 3.12913L9.9649 10.7844C9.71113 11.0381 9.367 11.1806 9.00817 11.1806C8.64934 11.1806 8.3052 11.0381 8.05144 10.7844L0.396208 3.12913C0.142516 2.87537 0 2.53123 0 2.1724C0 1.81357 0.142516 1.46943 0.396208 1.21567Z" fill="white"/>
</svg>
