<svg width="40" height="40" viewBox="0 0 40 40" fill="none" xmlns="http://www.w3.org/2000/svg">
<rect x="0.5" y="0.5" width="39" height="39" rx="9.5" stroke="#DAE3ED"/>
<path d="M27.6121 20.5444V19.4484L28.9874 18.245C29.241 18.0216 29.4073 17.7157 29.4571 17.3814C29.5069 17.0472 29.437 16.7061 29.2596 16.4184L27.5691 13.5532C27.4435 13.3356 27.2629 13.1549 27.0454 13.0292C26.8279 12.9034 26.5811 12.8371 26.3299 12.8369C26.1742 12.8357 26.0194 12.8599 25.8715 12.9085L24.1308 13.4959C23.8303 13.2962 23.5168 13.1167 23.1925 12.9586L22.8271 11.1535C22.7616 10.8237 22.5822 10.5275 22.3203 10.3167C22.0584 10.1058 21.7307 9.99382 21.3945 10.0003H18.0422C17.706 9.99382 17.3783 10.1058 17.1164 10.3167C16.8545 10.5275 16.675 10.8237 16.6095 11.1535L16.2442 12.9586C15.9175 13.1167 15.6017 13.2961 15.2987 13.4959L13.5939 12.8798C13.4444 12.8409 13.2896 12.8264 13.1354 12.8369C12.8842 12.8371 12.6374 12.9034 12.4199 13.0292C12.2024 13.1549 12.0218 13.3356 11.8962 13.5532L10.2057 16.4184C10.0385 16.7057 9.97637 17.0421 10.03 17.3701C10.0835 17.6981 10.2495 17.9973 10.4994 18.2164L11.8532 19.4556V20.5516L10.4994 21.755C10.2424 21.9756 10.0719 22.2801 10.0182 22.6145C9.96441 22.9489 10.0308 23.2915 10.2057 23.5816L11.8962 26.4468C12.0218 26.6644 12.2024 26.8451 12.4199 26.9708C12.6374 27.0966 12.8842 27.1629 13.1354 27.1631C13.2911 27.1643 13.446 27.1401 13.5939 27.0915L15.3345 26.5041C15.635 26.7038 15.9485 26.8833 16.2729 27.0414L16.6382 28.8465C16.7037 29.1763 16.8831 29.4725 17.145 29.6833C17.4069 29.8942 17.7347 30.0062 18.0708 29.9997H21.4518C21.788 30.0062 22.1157 29.8942 22.3776 29.6833C22.6395 29.4725 22.8189 29.1763 22.8844 28.8465L23.2498 27.0414C23.5765 26.8833 23.8923 26.7039 24.1953 26.5041L25.9288 27.0915C26.0767 27.1401 26.2315 27.1643 26.3872 27.1631C26.6385 27.1629 26.8852 27.0966 27.1027 26.9708C27.3202 26.8451 27.5008 26.6644 27.6264 26.4468L29.2596 23.5816C29.4268 23.2943 29.489 22.9579 29.4354 22.6299C29.3818 22.3019 29.2159 22.0027 28.966 21.7836L27.6121 20.5444ZM26.3299 25.7305L23.873 24.8996C23.2978 25.3868 22.6405 25.7676 21.9318 26.0242L21.4232 28.5958H18.0422L17.5336 26.0529C16.8305 25.7889 16.1767 25.4088 15.5995 24.9282L13.1354 25.7305L11.4449 22.8653L13.3933 21.1461C13.2608 20.4046 13.2608 19.6455 13.3933 18.904L11.4449 17.1347L13.1354 14.2695L15.5924 15.1004C16.1675 14.6132 16.8249 14.2324 17.5336 13.9758L18.0422 11.4042H21.4232L21.9318 13.9472C22.6349 14.2111 23.2887 14.5912 23.8658 15.0718L26.3299 14.2695L28.0204 17.1347L26.072 18.8539C26.2045 19.5954 26.2045 20.3545 26.072 21.096L28.0204 22.8653L26.3299 25.7305Z" fill="white"/>
<path d="M19.7329 24.298C18.8828 24.298 18.0519 24.046 17.3451 23.5737C16.6383 23.1015 16.0875 22.4302 15.7622 21.6449C15.4369 20.8595 15.3517 19.9954 15.5176 19.1617C15.6834 18.328 16.0928 17.5622 16.6938 16.9611C17.2949 16.36 18.0607 15.9507 18.8944 15.7849C19.7281 15.619 20.5923 15.7041 21.3776 16.0294C22.1629 16.3547 22.8342 16.9056 23.3064 17.6124C23.7787 18.3192 24.0308 19.1501 24.0308 20.0002C24.0365 20.5662 23.9293 21.1276 23.7153 21.6517C23.5014 22.1757 23.185 22.6518 22.7847 23.052C22.3845 23.4523 21.9084 23.7686 21.3844 23.9826C20.8603 24.1965 20.2989 24.3038 19.7329 24.298ZM19.7329 17.1349C19.3542 17.1261 18.9777 17.1942 18.626 17.335C18.2744 17.4759 17.955 17.6866 17.6872 17.9545C17.4194 18.2223 17.2086 18.5417 17.0678 18.8933C16.9269 19.2449 16.8588 19.6215 16.8676 20.0002C16.8588 20.3788 16.9269 20.7554 17.0678 21.107C17.2086 21.4586 17.4194 21.778 17.6872 22.0458C17.955 22.3137 18.2744 22.5244 18.626 22.6653C18.9777 22.8061 19.3542 22.8742 19.7329 22.8654C20.1116 22.8742 20.4881 22.8061 20.8397 22.6653C21.1913 22.5244 21.5107 22.3137 21.7786 22.0458C22.0464 21.778 22.2571 21.4586 22.398 21.107C22.5389 20.7554 22.607 20.3788 22.5981 20.0002C22.607 19.6215 22.5389 19.2449 22.398 18.8933C22.2571 18.5417 22.0464 18.2223 21.7786 17.9545C21.5107 17.6866 21.1913 17.4759 20.8397 17.335C20.4881 17.1942 20.1116 17.1261 19.7329 17.1349Z" fill="white"/>
</svg>
