<svg width="20" height="20" viewBox="0 0 20 20" fill="none" xmlns="http://www.w3.org/2000/svg">
<path d="M17.6121 10.5444V9.44844L18.9874 8.24503C19.241 8.02158 19.4073 7.7157 19.4571 7.38144C19.5069 7.04719 19.437 6.7061 19.2596 6.41843L17.5691 3.55318C17.4435 3.33561 17.2629 3.15489 17.0454 3.02917C16.8279 2.90344 16.5811 2.83712 16.3299 2.83686C16.1742 2.83567 16.0194 2.85987 15.8715 2.9085L14.1308 3.49587C13.8303 3.29617 13.5168 3.1167 13.1925 2.95864L12.8271 1.15353C12.7616 0.823741 12.5822 0.527499 12.3203 0.316661C12.0584 0.105822 11.7307 -0.00617905 11.3945 0.000263196H8.04217C7.706 -0.00617905 7.37828 0.105822 7.11637 0.316661C6.85446 0.527499 6.67505 0.823741 6.60954 1.15353L6.24422 2.95864C5.91754 3.11666 5.60167 3.29613 5.29869 3.49587L3.59386 2.87984C3.44437 2.84089 3.28955 2.82638 3.13542 2.83686C2.88419 2.83712 2.63745 2.90344 2.41994 3.02917C2.20244 3.15489 2.02182 3.33561 1.8962 3.55318L0.205701 6.41843C0.0385044 6.70567 -0.0236253 7.0421 0.0299533 7.3701C0.0835318 7.69811 0.249485 7.99728 0.49939 8.21638L1.85322 9.4556V10.5516L0.49939 11.755C0.242426 11.9756 0.0719336 12.2801 0.0181694 12.6145C-0.0355948 12.9489 0.0308462 13.2915 0.205701 13.5816L1.8962 16.4468C2.02182 16.6644 2.20244 16.8451 2.41994 16.9708C2.63745 17.0966 2.88419 17.1629 3.13542 17.1631C3.29111 17.1643 3.44596 17.1401 3.59386 17.0915L5.33451 16.5041C5.63503 16.7038 5.94851 16.8833 6.27288 17.0414L6.6382 18.8465C6.7037 19.1763 6.88311 19.4725 7.14502 19.6833C7.40693 19.8942 7.73466 20.0062 8.07082 19.9997H11.4518C11.788 20.0062 12.1157 19.8942 12.3776 19.6833C12.6395 19.4725 12.8189 19.1763 12.8844 18.8465L13.2498 17.0414C13.5765 16.8833 13.8923 16.7039 14.1953 16.5041L15.9288 17.0915C16.0767 17.1401 16.2315 17.1643 16.3872 17.1631C16.6385 17.1629 16.8852 17.0966 17.1027 16.9708C17.3202 16.8451 17.5008 16.6644 17.6264 16.4468L19.2596 13.5816C19.4268 13.2943 19.489 12.9579 19.4354 12.6299C19.3818 12.3019 19.2159 12.0027 18.966 11.7836L17.6121 10.5444ZM16.3299 15.7305L13.873 14.8996C13.2978 15.3868 12.6405 15.7676 11.9318 16.0242L11.4232 18.5958H8.04217L7.53359 16.0529C6.83047 15.7889 6.17669 15.4088 5.59954 14.9282L3.13542 15.7305L1.44492 12.8653L3.3933 11.1461C3.26085 10.4046 3.26085 9.64553 3.3933 8.90404L1.44492 7.13475L3.13542 4.26949L5.59238 5.10042C6.16753 4.61325 6.82487 4.23243 7.53359 3.9758L8.04217 1.40424H11.4232L11.9318 3.94715C12.6349 4.21106 13.2887 4.59122 13.8658 5.07176L16.3299 4.26949L18.0204 7.13475L16.072 8.8539C16.2045 9.59538 16.2045 10.3545 16.072 11.096L18.0204 12.8653L16.3299 15.7305Z" fill="white"/>
<path d="M9.73294 14.2981C8.8829 14.2981 8.05195 14.046 7.34517 13.5738C6.63838 13.1015 6.08751 12.4303 5.76222 11.6449C5.43692 10.8596 5.35181 9.99545 5.51764 9.16174C5.68348 8.32803 6.09281 7.56222 6.69388 6.96115C7.29495 6.36008 8.06076 5.95075 8.89447 5.78492C9.72817 5.61908 10.5923 5.70419 11.3777 6.02949C12.163 6.35479 12.8342 6.90566 13.3065 7.61244C13.7788 8.31922 14.0308 9.15017 14.0308 10.0002C14.0366 10.5662 13.9293 11.1277 13.7154 11.6517C13.5014 12.1758 13.1851 12.6518 12.7848 13.0521C12.3846 13.4523 11.9085 13.7687 11.3844 13.9826C10.8604 14.1966 10.2989 14.3038 9.73294 14.2981V14.2981ZM9.73294 7.13496C9.35426 7.12614 8.97772 7.19422 8.62611 7.33509C8.27449 7.47596 7.9551 7.68669 7.68726 7.95453C7.41942 8.22237 7.20869 8.54176 7.06782 8.89338C6.92695 9.24499 6.85887 9.62153 6.86769 10.0002C6.85887 10.3789 6.92695 10.7554 7.06782 11.1071C7.20869 11.4587 7.41942 11.7781 7.68726 12.0459C7.9551 12.3137 8.27449 12.5245 8.62611 12.6653C8.97772 12.8062 9.35426 12.8743 9.73294 12.8655C10.1116 12.8743 10.4882 12.8062 10.8398 12.6653C11.1914 12.5245 11.5108 12.3137 11.7786 12.0459C12.0465 11.7781 12.2572 11.4587 12.3981 11.1071C12.5389 10.7554 12.607 10.3789 12.5982 10.0002C12.607 9.62153 12.5389 9.24499 12.3981 8.89338C12.2572 8.54176 12.0465 8.22237 11.7786 7.95453C11.5108 7.68669 11.1914 7.47596 10.8398 7.33509C10.4882 7.19422 10.1116 7.12614 9.73294 7.13496Z" fill="white"/>
</svg>
