<svg width="32" height="34" viewBox="0 0 32 34" fill="none" xmlns="http://www.w3.org/2000/svg">
<path fill-rule="evenodd" clip-rule="evenodd" d="M0.292851 26.571L7.13632 33.4144L13.9798 26.571C14.3703 26.1804 14.3703 25.5473 13.9798 25.1567C13.5893 24.7662 12.9561 24.7662 12.5656 25.1567L7.99925 29.7231L7.99925 19.5004L5.99925 19.5004L5.99925 29.4489L1.70707 25.1567C1.31654 24.7662 0.683377 24.7662 0.292851 25.1567C-0.0976708 25.5473 -0.0976709 26.1804 0.292851 26.571ZM18.9798 8.84399L23.4094 4.41437L23.4094 32.0002C23.4094 32.5525 23.8571 33.0002 24.4094 33.0002C24.9617 33.0002 25.4094 32.5525 25.4094 32.0002L25.4094 4.41508L29.8383 8.84399C30.2288 9.23451 30.862 9.23451 31.2525 8.84399C31.643 8.45346 31.643 7.8203 31.2525 7.42977L24.409 0.586303L17.5656 7.42977C17.1751 7.8203 17.1751 8.45346 17.5656 8.84399C17.9561 9.23451 18.5893 9.23451 18.9798 8.84399ZM7.13597 1.00036C6.58368 1.00036 6.13597 1.44808 6.13597 2.00036L6.13597 3.83275L8.13597 3.83275L8.13597 2.00036C8.13597 1.44808 7.68825 1.00036 7.13597 1.00036ZM8.13597 11.1623L8.13597 7.49752L6.13597 7.49752L6.13597 11.1623L8.13597 11.1623ZM8.13597 16.6595L8.13597 14.8271L6.13597 14.8271L6.13597 16.6595L8.13597 16.6595Z" fill="#DAE3ED"/>
</svg>
