<svg width="32" height="34" viewBox="0 0 32 34" fill="none" xmlns="http://www.w3.org/2000/svg">
<path fill-rule="evenodd" clip-rule="evenodd" d="M25.5703 1.29304L24.8632 0.585938L24.1561 1.29304L18.0197 7.42941C17.6292 7.81993 17.6292 8.4531 18.0197 8.84362C18.4102 9.23415 19.0434 9.23415 19.4339 8.84362L23.9998 4.27778V14.5001L25.9998 14.5002V4.55095L30.2924 8.84362C30.683 9.23415 31.3161 9.23415 31.7067 8.84362C32.0972 8.4531 32.0972 7.81993 31.7067 7.42941L25.5703 1.29304ZM23.864 19.1742V17.3418H25.864V19.1742H23.864ZM23.864 26.5037V22.839L25.864 22.839V26.5037H23.864ZM23.864 32.0009V30.1685H25.864V32.0009C25.864 32.5532 25.4163 33.0009 24.864 33.0009C24.3118 33.0009 23.864 32.5532 23.864 32.0009ZM7.59046 33.4141L6.88336 32.707L0.746994 26.5706C0.35647 26.1801 0.35647 25.5469 0.746994 25.1564C1.13752 24.7659 1.77068 24.7659 2.16121 25.1564L6.5906 29.5858L6.5906 2.00003C6.5906 1.44774 7.03832 1.00003 7.5906 1.00003C8.14288 1.00003 8.5906 1.44774 8.5906 2.00003L8.5906 29.5855L13.0197 25.1564C13.4102 24.7659 14.0434 24.7659 14.4339 25.1564C14.8245 25.5469 14.8245 26.1801 14.4339 26.5706L8.29757 32.707L7.59046 33.4141Z" fill="#DAE3ED"/>
</svg>
