<svg width="50" height="50" viewBox="0 0 50 50" fill="none" xmlns="http://www.w3.org/2000/svg">
<path fill-rule="evenodd" clip-rule="evenodd" d="M34.5703 9.29304L33.8632 8.58594L33.1561 9.29304L27.0197 15.4294C26.6292 15.8199 26.6292 16.4531 27.0197 16.8436C27.4102 17.2341 28.0434 17.2341 28.4339 16.8436L32.9998 12.2778V22.5001L34.9998 22.5002V12.551L39.2924 16.8436C39.683 17.2341 40.3161 17.2341 40.7067 16.8436C41.0972 16.4531 41.0972 15.8199 40.7067 15.4294L34.5703 9.29304ZM32.864 27.1742V25.3418H34.864V27.1742H32.864ZM32.864 34.5037V30.839L34.864 30.839V34.5037H32.864ZM32.864 40.0009V38.1685H34.864V40.0009C34.864 40.5532 34.4163 41.0009 33.864 41.0009C33.3118 41.0009 32.864 40.5532 32.864 40.0009ZM16.5905 41.4141L15.8834 40.707L9.74699 34.5706C9.35647 34.1801 9.35647 33.5469 9.74699 33.1564C10.1375 32.7659 10.7707 32.7659 11.1612 33.1564L15.5906 37.5858L15.5906 10C15.5906 9.44774 16.0383 9.00003 16.5906 9.00003C17.1429 9.00003 17.5906 9.44774 17.5906 10L17.5906 37.5855L22.0197 33.1564C22.4102 32.7659 23.0434 32.7659 23.4339 33.1564C23.8245 33.5469 23.8245 34.1801 23.4339 34.5706L17.2976 40.707L16.5905 41.4141Z" fill="#DAE3ED"/>
</svg>
