<svg width="50" height="50" viewBox="0 0 50 50" fill="none" xmlns="http://www.w3.org/2000/svg">
<path fill-rule="evenodd" clip-rule="evenodd" d="M9.29285 34.571L16.1363 41.4144L22.9798 34.571C23.3703 34.1804 23.3703 33.5473 22.9798 33.1567C22.5893 32.7662 21.9561 32.7662 21.5656 33.1567L16.9992 37.7231L16.9992 27.5004L14.9992 27.5004L14.9992 37.4489L10.7071 33.1567C10.3165 32.7662 9.68338 32.7662 9.29285 33.1567C8.90233 33.5473 8.90233 34.1804 9.29285 34.571ZM27.9798 16.844L32.4094 12.4144L32.4094 40.0002C32.4094 40.5525 32.8571 41.0002 33.4094 41.0002C33.9617 41.0002 34.4094 40.5525 34.4094 40.0002L34.4094 12.4151L38.8383 16.844C39.2288 17.2345 39.862 17.2345 40.2525 16.844C40.643 16.4535 40.643 15.8203 40.2525 15.4298L33.409 8.5863L26.5656 15.4298C26.1751 15.8203 26.1751 16.4535 26.5656 16.844C26.9561 17.2345 27.5893 17.2345 27.9798 16.844ZM16.136 9.00036C15.5837 9.00036 15.136 9.44808 15.136 10.0004L15.136 11.8328L17.136 11.8328L17.136 10.0004C17.136 9.44808 16.6883 9.00036 16.136 9.00036ZM17.136 19.1623L17.136 15.4975L15.136 15.4975L15.136 19.1623L17.136 19.1623ZM17.136 24.6595L17.136 22.8271L15.136 22.8271L15.136 24.6595L17.136 24.6595Z" fill="#DAE3ED"/>
</svg>
