<svg width="50" height="50" viewBox="0 0 50 50" fill="none" xmlns="http://www.w3.org/2000/svg">
<path d="M27.2729 16.1366L33.4093 10.0002L39.5457 16.1366" stroke="#DAE3ED" stroke-width="2" stroke-linecap="round"/>
<path d="M33.4092 40.0002V10.6821" stroke="#DAE3ED" stroke-width="2" stroke-linecap="round"/>
<path d="M22.2729 33.8639L16.1366 40.0002L10.0002 33.8639" stroke="#DAE3ED" stroke-width="2" stroke-linecap="round"/>
<path d="M15.1362 10.0001C15.1362 9.44778 15.5839 9.00006 16.1362 9.00006C16.6885 9.00006 17.1362 9.44778 17.1362 10.0001L15.1362 10.0001ZM17.1362 10.0001L17.1362 11.8324L15.1362 11.8324L15.1362 10.0001L17.1362 10.0001ZM17.1362 15.4972L17.1362 19.162L15.1362 19.162L15.1362 15.4972L17.1362 15.4972ZM17.1362 22.8268L17.1362 24.6592L15.1362 24.6592L15.1362 22.8268L17.1362 22.8268Z" fill="#DAE3ED"/>
<path d="M16 40.0003V27.5003" stroke="#DAE3ED" stroke-width="2"/>
</svg>
