<svg width="16" height="8" viewBox="0 0 16 8" fill="none" xmlns="http://www.w3.org/2000/svg">
<path fill-rule="evenodd" clip-rule="evenodd" d="M6.3235 1.17157C4.87691 -0.390525 2.53153 -0.390523 1.08494 1.17157C-0.361647 2.73367 -0.361647 5.26633 1.08494 6.82842C2.53153 8.39052 4.87691 8.39052 6.3235 6.82842L8 5.01806L9.6765 6.82843C11.1231 8.39052 13.4685 8.39052 14.9151 6.82843C16.3616 5.26633 16.3616 2.73367 14.9151 1.17158C13.4685 -0.39052 11.1231 -0.390519 9.6765 1.17158L8 2.98194L6.3235 1.17157ZM8.94278 4L10.6193 5.81037C11.5452 6.81021 13.0464 6.81021 13.9723 5.81037C14.8982 4.81053 14.8982 3.18947 13.9723 2.18963C13.0464 1.1898 11.5452 1.1898 10.6193 2.18963L8.94278 4ZM7.05722 4L5.38072 2.18963C4.45482 1.18979 2.95362 1.18979 2.02772 2.18963C1.10181 3.18947 1.10181 4.81053 2.02772 5.81037C2.95362 6.8102 4.45482 6.8102 5.38072 5.81037L7.05722 4Z" fill="#012749"/>
</svg>
