<svg width="1440" height="691" fill="none" xmlns="http://www.w3.org/2000/svg"><g opacity=".9"><path opacity=".71" d="m1445.67 151.722-40.51-22.227V67.081h-109.43V0h-140.69v170.057h-32.69v39.786h-25.58v95.166h-29.85v-131.06h-73.902v-38.221h-41.925v61.237l-39.078 21.451v123.25h-92.384V70.986h-99.485v50.699h-78.168l-21.318 11.702v28.084h-98.054l-18.482 10.138v95.179h-41.217V120.134H386.17v25.744H264.658v62.013l-22.04 12.09v60.916h-36.629V130.565l-49.736-10.926V79.077H22.651V250.7H1.334V33.059l-28.419.776-83.851 23.404v213.735h-35.534V129.79l-21.317-28.085V90.779h-49.736v10.926h-27.015l-21.317 24.955h-19.886V22.133h-51.167v37.834h-73.193l-41.926 23.016v533.535H454.842v-.428l990.828-.642V151.722Z" fill="#90ABC8"/><path d="M1354.51 176.62 1334 199.16v69.091h-21.87V79h-97.74v440.828l-29.38-32.3V233.706H967.651v64.571H852.833v292.044H751.958V326.643h-29.182V224.069H662.97v169.896h-27.724v32.068l-35.009-60.911H538.96V145.518H420.792l-10.213 11.216v142.66h-33.552V99.036H276.37v33.66l-19.704 21.642V495.75h-22.605V221.66h-13.14v-26.447H104.945l-19.69 21.642v30.448H-24.158L-30 636H334.72v-.803h370.546V636H1442V176.62h-87.49Z" fill="#90ABC8"/><path d="M1455.78 202.595V471.71h-34.73V364.602l-49.2-41.726V160.87h-62.23l-36.19-30.692h-46.3v163.237h-111.42v185.343h-28.96V219.78l-81.03 35.587v154.651h-21.702V171.916h-27.496v-69.97h-7.007V85.992h-61.518v13.507h-38.57V153.5h-63.671l-15.914 18.415v220.917h-54.27v-44.801l-34.009-28.833V213.642H562.9v87.141h-43.423v73.648l-52.09 49.094H434.1V190.318l-92.624-54.002v216.022H319.77V203.826H209.787v51.541h-50.646v246.701h-21.705V395.294H63.628v-33.14L50.602 346.2h-79.586l-5.79 762.3H1549.98V202.595h-94.2Z" fill="url(#a)"/></g><defs><linearGradient id="a" x1="757.605" y1="85.997" x2="757.605" y2="777" gradientUnits="userSpaceOnUse"><stop stop-color="#DAE3ED"/><stop offset="1" stop-color="#fff"/></linearGradient></defs></svg>